<svg width="19" height="19" viewBox="0 0 19 19" fill="none" xmlns="http://www.w3.org/2000/svg">
<path d="M10.7008 0.533177C9.86281 -0.173819 8.63719 -0.173819 7.79916 0.533177L1.04916 6.22772C0.542405 6.65523 0.25 7.28447 0.25 7.94747V17.2526C0.25 18.2191 1.0335 19.0026 2 19.0026H5C5.9665 19.0026 6.75 18.2191 6.75 17.2526V13.25C6.75 12.5707 7.29184 12.018 7.96689 12.0004H10.5331C11.2082 12.018 11.75 12.5707 11.75 13.25V17.2526C11.75 18.2191 12.5335 19.0026 13.5 19.0026H16.5C17.4665 19.0026 18.25 18.2191 18.25 17.2526V7.94747C18.25 7.28447 17.9576 6.65523 17.4508 6.22772L10.7008 0.533177Z" fill="#006FEE"/>
</svg>
